<?xml version="1.0" encoding="UTF-8"?> <svg xmlns="http://www.w3.org/2000/svg" width="84" height="48" viewBox="0 0 84 48" fill="none"><path d="M6.04098 11.7034C2.70527 11.7034 0 14.4086 0 17.7444V41.2278C0 44.5635 2.70527 47.2688 6.04098 47.2688C9.3767 47.2688 12.082 44.5635 12.082 41.2278V17.7444C12.082 14.4086 9.3767 11.7034 6.04098 11.7034Z" fill="#0ADD90"></path><path d="M34.7531 3.05176e-05C31.4341 3.05176e-05 28.7455 2.69029 28.7455 6.00765V11.7451H20.7281C17.4241 11.7451 14.7455 14.4237 14.7455 17.7277C14.7455 21.0317 17.4241 23.7086 20.7281 23.7086H28.7455V29.0875C28.552 32.595 25.6549 35.3803 22.1007 35.3803H20.3228V35.4053C17.1339 35.5354 14.587 38.1539 14.587 41.3746C14.587 44.5952 17.2656 47.3572 20.5696 47.3572C20.5763 47.3572 20.5813 47.3572 20.588 47.3572L20.5696 47.3789H24.8227C33.6256 47.3789 40.7607 40.2438 40.7607 31.4408V29.341C40.7607 29.3243 40.7624 29.3093 40.7624 29.2926V6.00765C40.7624 2.69029 38.0721 3.05176e-05 34.7548 3.05176e-05" fill="#0ADD90"></path><path d="M63.7923 35.4053V35.3803H62.0143C58.4601 35.3803 55.5631 32.595 55.3696 29.0875V23.7086H63.387C66.691 23.7086 69.3696 21.0301 69.3696 17.726C69.3696 14.422 66.691 11.7434 63.387 11.7434H55.3696V6.00765C55.3696 2.69029 52.6793 3.05176e-05 49.3603 3.05176e-05C46.0413 3.05176e-05 43.3527 2.69029 43.3527 6.00765V29.291C43.3527 29.3076 43.3543 29.3243 43.3543 29.3393V31.4408C43.3543 40.2438 50.4894 47.3789 59.2924 47.3789H63.5454L63.5271 47.3572C63.5271 47.3572 63.5387 47.3572 63.5454 47.3572C66.8494 47.3572 69.528 44.6786 69.528 41.3746C69.528 38.0706 66.9812 35.5354 63.7923 35.4053Z" fill="#0ADD90"></path><path d="M77.959 11.7034C74.6232 11.7034 71.918 14.4086 71.918 17.7444V41.2278C71.918 44.5635 74.6232 47.2688 77.959 47.2688C81.2947 47.2688 83.9999 44.5635 83.9999 41.2278V17.7444C83.9999 14.4086 81.2947 11.7034 77.959 11.7034" fill="#0ADD90"></path></svg> 