<svg width="141" height="142" viewBox="0 0 141 142" fill="none" xmlns="http://www.w3.org/2000/svg">
<path d="M15.5891 95.6715C15.7583 96.0351 15.8243 96.4083 15.7869 96.7913C15.7465 97.1758 15.618 97.528 15.4015 97.8482C15.1835 98.1654 14.8928 98.4086 14.5292 98.5779C14.1626 98.7485 13.7894 98.8145 13.4094 98.7757C13.025 98.7353 12.6742 98.6061 12.357 98.3882C12.0368 98.1716 11.7921 97.8816 11.6228 97.518C11.4522 97.1514 11.3877 96.7774 11.4295 96.396C11.4669 96.013 11.5946 95.6629 11.8125 95.3458C12.0261 95.027 12.3161 94.7823 12.6827 94.6116C13.0463 94.4424 13.4203 94.3779 13.8047 94.4183C14.1877 94.4557 14.5393 94.5827 14.8594 94.7992C15.1752 95.0142 15.4184 95.3049 15.5891 95.6715Z" fill="#1D1F20"/>
<path d="M12.8022 60.0948L2.8948 57.7468L3.77531 54.0315C3.9557 53.2704 4.24894 52.6655 4.65503 52.2167C5.0619 51.7648 5.545 51.4654 6.10433 51.3187C6.6612 51.1679 7.25408 51.1671 7.88297 51.3161C8.51831 51.4667 9.05097 51.7343 9.48097 52.1189C9.91096 52.5035 10.2059 52.9907 10.3659 53.5804C10.5227 54.1694 10.5105 54.846 10.3293 55.6104L9.74578 58.0727L8.27032 57.723L8.79656 55.5026C8.90204 55.0575 8.91101 54.6747 8.82346 54.3542C8.73592 54.0338 8.57275 53.7737 8.33395 53.574C8.09591 53.3711 7.80112 53.228 7.44959 53.1447C7.09806 53.0614 6.77202 53.0574 6.47148 53.1326C6.17169 53.2046 5.91361 53.3666 5.69724 53.6184C5.4784 53.8663 5.31586 54.2144 5.20961 54.6627L4.8198 56.3075L13.2275 58.3001L12.8022 60.0948Z" fill="#1D1F20"/>
<path d="M15.1768 51.2686L8.04728 48.5329L8.67243 46.9037L9.86069 47.3596L9.88918 47.2853C9.5275 46.9975 9.29581 46.6529 9.19412 46.2518C9.09053 45.8464 9.1171 45.4395 9.27383 45.031C9.30946 44.9382 9.35387 44.8363 9.40709 44.7254C9.4584 44.6102 9.50663 44.5169 9.55179 44.4454L11.0974 45.0385C11.0454 45.1002 10.9804 45.2048 10.9024 45.3524C10.8226 45.4957 10.7554 45.6386 10.7008 45.7809C10.5832 46.0873 10.5441 46.3882 10.5833 46.6837C10.6207 46.9749 10.7287 47.2347 10.9073 47.463C11.086 47.6913 11.3269 47.8636 11.6302 47.98L15.8215 49.5883L15.1768 51.2686Z" fill="#1D1F20"/>
<path d="M17.0366 39.5638L13.1537 37.4422L14.0167 35.8629L20.718 39.5245L19.8812 41.0558L18.6902 40.405L18.652 40.4748C18.9446 40.8311 19.1156 41.2474 19.165 41.7239C19.2159 42.1974 19.104 42.6857 18.829 43.1889C18.589 43.6281 18.2794 43.9631 17.9002 44.1941C17.5197 44.4205 17.0902 44.5257 16.6117 44.5097C16.1303 44.4922 15.622 44.3372 15.0868 44.0448L10.82 41.7134L11.6829 40.1341L15.7054 42.332C16.1301 42.564 16.531 42.632 16.9083 42.536C17.2856 42.44 17.5775 42.2029 17.7841 41.8248C17.9112 41.5921 17.9777 41.3357 17.9835 41.0556C17.9892 40.7755 17.9183 40.5044 17.7706 40.2425C17.6216 39.976 17.3769 39.7498 17.0366 39.5638Z" fill="#1D1F20"/>
<path d="M23.5285 35.8209C23.0751 36.4378 22.5553 36.8764 21.9692 37.1367C21.3824 37.3923 20.7643 37.4666 20.1149 37.3596C19.4628 37.2506 18.815 36.9596 18.1713 36.4866C17.5384 36.0214 17.0712 35.493 16.7698 34.9013C16.4676 34.305 16.343 33.691 16.3958 33.0594C16.446 32.4258 16.687 31.8153 17.1188 31.2277C17.3975 30.8485 17.7219 30.5357 18.0921 30.2895C18.4615 30.0386 18.8683 29.8769 19.3124 29.8043C19.7585 29.729 20.2328 29.7608 20.7353 29.8998C21.2351 30.0368 21.7548 30.3035 22.2943 30.7L22.739 31.0268L19.0324 36.0705L18.0549 35.3522L20.7399 31.6986C20.4602 31.4971 20.169 31.3756 19.8663 31.3342C19.5609 31.2907 19.2679 31.3284 18.9873 31.4471C18.7087 31.5632 18.4674 31.7601 18.2632 32.0379C18.0454 32.3343 17.9261 32.6477 17.9055 32.9781C17.8822 33.3064 17.9406 33.6188 18.0807 33.915C18.2201 34.2067 18.4263 34.4549 18.6995 34.6598L19.5528 35.2869C19.9106 35.5499 20.2659 35.7101 20.6184 35.7677C20.9683 35.8233 21.2977 35.7836 21.6067 35.6487C21.9129 35.5118 22.1819 35.2858 22.4135 34.9706C22.5685 34.7596 22.6795 34.5471 22.7463 34.333C22.8105 34.1169 22.83 33.9029 22.8047 33.691C22.7794 33.4791 22.7036 33.2774 22.5771 33.0857L23.7244 31.8435C24.0195 32.192 24.2122 32.5845 24.3027 33.0212C24.3924 33.4532 24.3743 33.9088 24.2483 34.3879C24.1198 34.8652 23.8798 35.3428 23.5285 35.8209Z" fill="#1D1F20"/>
<path d="M25.989 32.3356L18.6612 25.2664L19.9108 23.9712L22.6515 26.6152L22.7033 26.5616C22.6341 26.3659 22.5831 26.1348 22.5502 25.8682C22.5149 25.5992 22.5437 25.3092 22.6365 24.9982C22.727 24.6848 22.9276 24.3671 23.2382 24.0451C23.6479 23.6205 24.1257 23.3423 24.6719 23.2106C25.2179 23.0742 25.7987 23.1095 26.4142 23.3165C27.0296 23.5187 27.6426 23.9144 28.2533 24.5035C28.8568 25.0857 29.2741 25.6794 29.5053 26.2847C29.7365 26.89 29.7985 27.4702 29.6913 28.0253C29.584 28.5804 29.3222 29.0739 28.9057 29.5056C28.6019 29.8205 28.2974 30.0311 27.9923 30.1373C27.6871 30.2436 27.3996 30.2886 27.1298 30.2724C26.8598 30.2514 26.6247 30.2111 26.4244 30.1514L26.3519 30.2266L27.2178 31.0619L25.989 32.3356ZM24.4664 28.4145C24.8218 28.7574 25.1815 29.0076 25.5453 29.1651C25.9114 29.3203 26.2616 29.375 26.596 29.3291C26.9303 29.2786 27.2297 29.1161 27.4944 28.8418C27.7705 28.5556 27.9254 28.2422 27.9592 27.9017C27.9905 27.5589 27.9198 27.2098 27.747 26.8543C27.5741 26.494 27.3159 26.1482 26.9724 25.8169C26.6313 25.4878 26.2812 25.2445 25.9221 25.0868C25.563 24.9292 25.2151 24.8745 24.8784 24.9227C24.5417 24.971 24.2342 25.1394 23.9557 25.428C23.6888 25.7047 23.5349 26.0099 23.494 26.3435C23.4531 26.677 23.5155 27.0205 23.6813 27.3738C23.8493 27.7247 24.111 28.0716 24.4664 28.4145Z" fill="#1D1F20"/>
<path d="M33.7892 25.1123C33.4098 25.4127 33.0146 25.6157 32.6036 25.7213C32.1932 25.8222 31.7936 25.8088 31.405 25.681C31.019 25.5512 30.6707 25.2901 30.36 24.8977C30.0926 24.5599 29.9338 24.2312 29.8836 23.9116C29.8335 23.5919 29.8638 23.2805 29.9745 22.9772C30.0853 22.6739 30.2491 22.3815 30.4658 22.1C30.6831 21.8138 30.925 21.5399 31.1913 21.2783C31.5133 20.9642 31.7721 20.7064 31.9678 20.505C32.1614 20.301 32.2829 20.1287 32.3322 19.9882C32.3821 19.843 32.3536 19.7028 32.2466 19.5677L32.2281 19.5443C31.9956 19.2507 31.7286 19.0922 31.4269 19.069C31.1252 19.0457 30.8107 19.1637 30.4833 19.4229C30.1377 19.6965 29.9232 19.9889 29.8398 20.3001C29.7591 20.6092 29.7649 20.8942 29.8572 21.1551L28.3916 22.011C28.2075 21.5649 28.1383 21.1251 28.184 20.6916C28.2276 20.2554 28.3739 19.8395 28.6228 19.4437C28.8697 19.0454 29.2023 18.6806 29.6207 18.3493C29.9091 18.121 30.223 17.9274 30.5623 17.7687C30.9017 17.6099 31.2513 17.5149 31.6112 17.4836C31.9691 17.4497 32.3244 17.5087 32.6771 17.6606C33.0325 17.8105 33.3676 18.0842 33.6823 18.4818L36.8547 22.4888L35.4983 23.5627L34.8471 22.7402L34.8004 22.7773C34.8463 23.0115 34.8489 23.2631 34.8082 23.532C34.768 23.7963 34.666 24.0652 34.5021 24.3387C34.3387 24.6076 34.1011 24.8655 33.7892 25.1123ZM33.3348 23.7854C33.618 23.5612 33.8193 23.3109 33.9388 23.0346C34.0561 22.7556 34.0966 22.4784 34.0602 22.2028C34.0264 21.9252 33.9221 21.676 33.7472 21.4551L33.1887 20.7496C33.1733 20.8209 33.1247 20.9144 33.0428 21.0299C32.9636 21.1434 32.8682 21.2632 32.7568 21.3895C32.6454 21.5158 32.5332 21.6384 32.4203 21.7574C32.3074 21.8764 32.2093 21.9794 32.126 22.0665C31.9382 22.2617 31.7868 22.4576 31.6719 22.6543C31.5571 22.8509 31.4978 23.0457 31.4943 23.2388C31.4886 23.4292 31.5578 23.6154 31.7018 23.7973C31.9076 24.0572 32.1578 24.1783 32.4524 24.1606C32.747 24.143 33.0411 24.0179 33.3348 23.7854Z" fill="#1D1F20"/>
<path d="M70.7009 10.1351C70.2999 10.1356 69.9335 10.0383 69.6018 9.84316C69.2701 9.64471 69.0046 9.37989 68.8054 9.0487C68.6094 8.7175 68.5112 8.35138 68.5107 7.95034C68.5102 7.54598 68.6075 7.17962 68.8026 6.85125C69.0011 6.51957 69.2659 6.25574 69.5971 6.05978C69.9283 5.86051 70.2944 5.76062 70.6955 5.76012C71.0998 5.75962 71.4662 5.85859 71.7945 6.05705C72.1262 6.25219 72.39 6.51535 72.586 6.84655C72.7853 7.17443 72.8852 7.54054 72.8857 7.9449C72.8862 8.34594 72.7872 8.7123 72.5887 9.04399C72.3936 9.37567 72.1304 9.64115 71.7993 9.84043C71.4714 10.0364 71.1053 10.1346 70.7009 10.1351Z" fill="#1D1F20"/>
<path d="M109.046 15.4498L110.003 14.2352L116.384 19.2619L115.428 20.4765L112.955 18.5292L107.612 25.3131L106.175 24.181L111.518 17.3971L109.046 15.4498Z" fill="#1D1F20"/>
<path d="M112.442 29.9965C111.909 29.4468 111.563 28.8614 111.404 28.2401C111.249 27.6189 111.279 26.9971 111.492 26.3745C111.708 25.7497 112.103 25.1593 112.676 24.6033C113.24 24.0565 113.839 23.6837 114.473 23.4849C115.111 23.2862 115.737 23.2654 116.351 23.4225C116.967 23.5774 117.529 23.9166 118.037 24.4401C118.365 24.778 118.619 25.1499 118.8 25.5559C118.986 25.9619 119.078 26.3899 119.076 26.8399C119.076 27.2923 118.965 27.7547 118.745 28.2271C118.527 28.6972 118.177 29.1652 117.697 29.6313L117.3 30.0154L112.943 25.5215L113.814 24.6771L116.97 27.9324C117.216 27.6901 117.384 27.4232 117.475 27.1316C117.569 26.8377 117.58 26.5426 117.51 26.2461C117.442 25.9521 117.288 25.6813 117.048 25.4338C116.792 25.1697 116.502 25 116.18 24.9247C115.86 24.8471 115.543 24.8527 115.227 24.9416C114.916 25.0305 114.637 25.1926 114.39 25.4279L113.63 26.165C113.311 26.4742 113.094 26.7978 112.978 27.1359C112.865 27.4716 112.849 27.8031 112.931 28.1301C113.015 28.4549 113.193 28.7577 113.466 29.0385C113.648 29.2264 113.839 29.3712 114.039 29.4727C114.241 29.572 114.449 29.6268 114.662 29.6371C114.875 29.6474 115.087 29.6062 115.297 29.5133L116.331 30.8513C115.938 31.0843 115.519 31.209 115.074 31.2256C114.633 31.2422 114.186 31.1486 113.735 30.9447C113.286 30.7385 112.855 30.4225 112.442 29.9965ZM118.171 23.2784L120.577 22.4964L121.802 23.76L119.109 24.2457L118.171 23.2784Z" fill="#1D1F20"/>
<path d="M117.694 36.2657C117.241 35.6525 116.987 35.0266 116.931 34.3878C116.878 33.7517 117 33.1397 117.3 32.5519C117.603 31.9648 118.066 31.4418 118.687 30.983C119.311 30.5221 119.95 30.2354 120.604 30.1228C121.262 30.0083 121.885 30.0711 122.474 30.3114C123.069 30.5524 123.587 30.9728 124.03 31.5726C124.399 32.0711 124.633 32.5802 124.732 33.1C124.837 33.6205 124.807 34.1184 124.643 34.5939C124.482 35.0673 124.192 35.4835 123.773 35.8424L122.751 34.4588C123.005 34.1843 123.153 33.8688 123.195 33.5125C123.241 33.1568 123.136 32.8044 122.878 32.4552C122.659 32.1592 122.387 31.9584 122.062 31.8526C121.739 31.7449 121.383 31.7377 120.995 31.831C120.608 31.9269 120.208 32.1275 119.795 32.4328C119.377 32.742 119.062 33.0692 118.851 33.4143C118.643 33.7575 118.54 34.0998 118.541 34.4412C118.546 34.7833 118.66 35.105 118.883 35.4062C119.04 35.6195 119.221 35.7806 119.425 35.8894C119.634 35.999 119.858 36.054 120.097 36.0544C120.336 36.0548 120.582 35.9946 120.835 35.8738L121.857 37.2574C121.397 37.5437 120.917 37.7004 120.418 37.7272C119.921 37.7521 119.438 37.6439 118.967 37.4025C118.498 37.1591 118.074 36.7802 117.694 36.2657Z" fill="#1D1F20"/>
<path d="M124.883 38.8158L120.962 40.971L120.095 39.3939L126.787 35.7156L127.616 37.2231L126.479 37.8481L126.522 37.9265C126.981 37.8745 127.414 37.9563 127.82 38.1719C128.227 38.3905 128.568 38.7495 128.843 39.2491C129.097 39.7109 129.219 40.1675 129.21 40.6188C129.203 41.073 129.063 41.4974 128.792 41.8922C128.523 42.2898 128.12 42.6341 127.584 42.9249L123.323 45.2669L122.456 43.6897L126.474 41.4818C126.921 41.236 127.207 40.9274 127.332 40.5562C127.459 40.1878 127.41 39.8003 127.187 39.3937C127.035 39.1177 126.839 38.9058 126.599 38.7579C126.363 38.6114 126.099 38.5393 125.805 38.5419C125.513 38.5473 125.206 38.6386 124.883 38.8158Z" fill="#1D1F20"/>
<path d="M124.795 48.8694L131.918 46.116L132.567 47.7947L125.444 50.5481L124.795 48.8694ZM133.255 46.5692C133.152 46.3033 133.152 46.0405 133.254 45.7807C133.359 45.5197 133.537 45.3408 133.788 45.244C134.041 45.146 134.293 45.1588 134.543 45.2824C134.797 45.4047 134.975 45.5988 135.077 45.8647C135.181 46.1337 135.18 46.3971 135.074 46.655C134.972 46.9148 134.794 47.0937 134.54 47.1917C134.29 47.2885 134.038 47.2757 133.785 47.1533C133.536 47.0329 133.359 46.8382 133.255 46.5692Z" fill="#1D1F20"/>
<path d="M127.308 57.4265C127.13 56.6852 127.14 56.0096 127.338 55.3998C127.537 54.7932 127.889 54.2777 128.394 53.8534C128.903 53.4315 129.533 53.1306 130.284 52.9506C131.038 52.7699 131.739 52.7554 132.385 52.9073C133.035 53.0583 133.584 53.3595 134.033 53.8109C134.486 54.2647 134.799 54.8542 134.973 55.5794C135.118 56.1821 135.134 56.7422 135.023 57.2596C134.916 57.7795 134.694 58.2263 134.358 58.6001C134.024 58.973 133.595 59.243 133.069 59.4098L132.668 57.737C133.01 57.5836 133.269 57.351 133.447 57.0392C133.628 56.7299 133.668 56.3641 133.567 55.9419C133.482 55.5841 133.31 55.293 133.051 55.0686C132.796 54.8434 132.472 54.698 132.078 54.6322C131.684 54.5697 131.238 54.5983 130.738 54.718C130.232 54.8393 129.815 55.0177 129.486 55.2532C129.161 55.488 128.932 55.7627 128.799 56.0773C128.671 56.3944 128.65 56.735 128.737 57.0992C128.799 57.3571 128.903 57.576 129.048 57.7559C129.197 57.9382 129.382 58.0763 129.602 58.1701C129.823 58.2639 130.073 58.3045 130.352 58.292L130.753 59.9648C130.218 60.0488 129.715 60.0057 129.245 59.8355C128.778 59.6645 128.375 59.376 128.035 58.9699C127.699 58.563 127.457 58.0486 127.308 57.4265Z" fill="#1D1F20"/>
<path d="M128.424 64.015C128.375 63.5336 128.417 63.0912 128.549 62.688C128.685 62.2877 128.911 61.9581 129.228 61.6993C129.545 61.4438 129.953 61.2907 130.451 61.24C130.879 61.1963 131.242 61.2394 131.538 61.3691C131.834 61.4988 132.081 61.6919 132.277 61.9485C132.473 62.205 132.631 62.5004 132.752 62.8346C132.876 63.1718 132.977 63.523 133.054 63.8882C133.146 64.3287 133.223 64.6855 133.288 64.9588C133.356 65.2318 133.436 65.4269 133.527 65.5441C133.623 65.6643 133.757 65.7157 133.928 65.6982L133.958 65.6952C134.33 65.6572 134.608 65.5174 134.789 65.2756C134.971 65.0339 135.041 64.7053 134.999 64.2898C134.954 63.8513 134.823 63.5131 134.606 63.2754C134.389 63.041 134.145 62.8926 133.876 62.8301L133.943 61.1341C134.418 61.219 134.826 61.3973 135.167 61.6691C135.511 61.9406 135.783 62.2877 135.982 62.7104C136.185 63.1329 136.314 63.6095 136.368 64.1404C136.405 64.5064 136.399 64.8751 136.351 65.2465C136.302 65.618 136.194 65.9638 136.027 66.284C135.863 66.6039 135.622 66.8716 135.304 67.0872C134.986 67.3061 134.575 67.4413 134.071 67.4927L128.986 68.0106L128.811 66.2894L129.855 66.1831L129.849 66.1237C129.626 66.0364 129.413 65.9032 129.208 65.7242C129.007 65.5481 128.835 65.3174 128.693 65.0321C128.554 64.7497 128.465 64.4107 128.424 64.015ZM129.787 64.3459C129.824 64.7053 129.927 65.0097 130.095 65.259C130.267 65.508 130.479 65.6913 130.731 65.809C130.983 65.9299 131.249 65.976 131.53 65.9475L132.425 65.8563C132.373 65.8049 132.32 65.7137 132.267 65.5825C132.214 65.4547 132.164 65.3098 132.118 65.148C132.071 64.9861 132.028 64.8256 131.989 64.6664C131.949 64.5072 131.915 64.369 131.887 64.252C131.823 63.9886 131.74 63.7556 131.636 63.553C131.532 63.3503 131.399 63.1956 131.238 63.0887C131.081 62.9815 130.887 62.9396 130.656 62.9631C130.326 62.9967 130.09 63.1424 129.946 63.4003C129.802 63.6581 129.749 63.9733 129.787 64.3459Z" fill="#1D1F20"/>
<path d="M121.187 103.187C121.402 102.848 121.681 102.592 122.024 102.417C122.37 102.245 122.736 102.163 123.123 102.174C123.507 102.187 123.869 102.301 124.207 102.516C124.548 102.733 124.805 103.012 124.976 103.354C125.149 103.699 125.229 104.065 125.216 104.449C125.206 104.836 125.093 105.198 124.878 105.536C124.66 105.877 124.38 106.133 124.036 106.303C123.693 106.477 123.329 106.558 122.945 106.545C122.561 106.537 122.199 106.424 121.857 106.207C121.519 105.991 121.264 105.711 121.091 105.365C120.916 105.022 120.834 104.657 120.844 104.271C120.856 103.889 120.97 103.528 121.187 103.187Z" fill="#1D1F20"/>
<path d="M92.6266 124.704L95.9784 134.318L89.8193 136.466L89.3103 135.006L93.7278 133.466L92.8178 130.856L88.8228 132.248L88.3138 130.788L92.3088 129.396L90.8849 125.311L92.6266 124.704Z" fill="#1D1F20"/>
<path d="M83.0085 138.018L80.968 128.043L82.7312 127.682L84.7717 137.658L83.0085 138.018Z" fill="#1D1F20"/>
<path d="M73.1153 132.157L73.4163 136.572L71.6208 136.694L71.1013 129.075L72.8422 128.957L72.9346 130.311L73.0139 130.305C73.1568 129.867 73.4157 129.499 73.7907 129.201C74.1625 128.903 74.6343 128.735 75.2064 128.696C75.7057 128.662 76.1547 128.742 76.5534 128.938C76.949 129.137 77.2688 129.442 77.5128 129.854C77.7571 130.269 77.9 130.781 77.9415 131.389L78.2722 136.24L76.4767 136.363L76.1648 131.79C76.1319 131.307 75.9735 130.932 75.6896 130.666C75.4056 130.4 75.0487 130.281 74.6189 130.31C74.3543 130.328 74.1025 130.41 73.8632 130.556C73.624 130.702 73.4338 130.908 73.2924 131.173C73.148 131.442 73.0889 131.77 73.1153 132.157Z" fill="#1D1F20"/>
<path d="M63.7126 136.32L63.8038 134.931L68.1843 135.219L68.093 136.608L63.7126 136.32ZM66.8916 138.363L65.0958 138.245L65.5657 131.091C65.5816 130.85 65.5574 130.662 65.4931 130.528C65.4253 130.398 65.3317 130.305 65.2124 130.251C65.0931 130.197 64.959 130.164 64.8102 130.155C64.6977 130.147 64.5946 130.149 64.501 130.159C64.404 130.17 64.3302 130.18 64.2797 130.19L64.0694 128.766C64.1674 128.739 64.3071 128.712 64.4883 128.684C64.6662 128.656 64.8827 128.646 65.1378 128.657C65.5884 128.673 65.9891 128.767 66.3398 128.94C66.6903 129.116 66.961 129.369 67.1518 129.701C67.3393 130.032 67.4157 130.435 67.3811 130.911L66.8916 138.363Z" fill="#1D1F20"/>
<path d="M54.9989 134.836L55.2745 133.471L59.5775 134.34L59.3019 135.705L54.9989 134.836ZM57.8774 137.283L56.1133 136.927L57.5325 129.9C57.5804 129.663 57.5814 129.474 57.5356 129.332C57.4858 129.194 57.4054 129.09 57.2943 129.02C57.1833 128.95 57.0547 128.901 56.9085 128.871C56.7981 128.849 56.6957 128.837 56.6015 128.834C56.504 128.832 56.4295 128.832 56.3782 128.835L56.3594 127.396C56.4602 127.382 56.6023 127.374 56.7856 127.37C56.9656 127.366 57.1814 127.386 57.4329 127.43C57.8773 127.506 58.2619 127.653 58.5865 127.871C58.9104 128.092 59.1448 128.379 59.2898 128.733C59.4314 129.086 59.4534 129.497 59.3557 129.964L57.8774 137.283Z" fill="#1D1F20"/>
<path d="M51.2312 125.58C51.9548 125.83 52.5277 126.196 52.95 126.679C53.368 127.164 53.6221 127.732 53.7122 128.384C53.8013 129.039 53.7153 129.744 53.4542 130.499C53.1975 131.241 52.8312 131.844 52.3554 132.307C51.8754 132.773 51.3259 133.074 50.707 133.21C50.087 133.35 49.4324 133.301 48.7433 133.062C48.2985 132.909 47.9037 132.691 47.5589 132.411C47.2098 132.132 46.9348 131.792 46.7339 131.389C46.5298 130.985 46.4197 130.523 46.4035 130.002C46.3863 129.484 46.4871 128.908 46.7059 128.276L46.8863 127.754L52.8017 129.8L52.4052 130.946L48.1202 129.464C48.0107 129.791 47.9809 130.105 48.031 130.407C48.08 130.711 48.2028 130.98 48.3993 131.213C48.5927 131.445 48.8523 131.617 49.1781 131.729C49.5258 131.85 49.8604 131.871 50.182 131.793C50.5026 131.718 50.7836 131.569 51.025 131.348C51.2623 131.128 51.4383 130.858 51.553 130.536L51.8991 129.535C52.0443 129.115 52.0921 128.729 52.0426 128.375C51.992 128.024 51.8566 127.721 51.6362 127.466C51.4147 127.214 51.1191 127.024 50.7495 126.897C50.502 126.811 50.2662 126.768 50.0419 126.768C49.8165 126.77 49.6063 126.815 49.4115 126.902C49.2166 126.989 49.0463 127.121 48.9007 127.299L47.3744 126.571C47.6198 126.186 47.9376 125.886 48.3278 125.67C48.7139 125.456 49.1544 125.338 49.6494 125.317C50.1432 125.298 50.6705 125.386 51.2312 125.58Z" fill="#1D1F20"/>
<path d="M45.7856 123.563L42.35 130.383L40.7915 129.598L41.3641 128.461L41.2931 128.425C40.9704 128.756 40.6045 128.952 40.1952 129.013C39.7815 129.076 39.3792 129.009 38.9885 128.812C38.8997 128.767 38.8028 128.713 38.6977 128.649C38.5882 128.586 38.5002 128.529 38.4337 128.477L39.1785 126.998C39.2346 127.056 39.3322 127.131 39.4713 127.224C39.6059 127.317 39.7413 127.398 39.8774 127.467C40.1705 127.615 40.466 127.684 40.7639 127.674C41.0575 127.666 41.3267 127.585 41.5718 127.43C41.8168 127.275 42.0124 127.053 42.1585 126.762L44.1783 122.753L45.7856 123.563Z" fill="#1D1F20"/>
</svg>
